<svg id="Capa_1" enable-background="new 0 0 512 512" height="512" viewBox="0 0 512 512" width="512"
    xmlns="http://www.w3.org/2000/svg">
    <symbol id="bonfire" viewBox="0 0 512 512">
        <g>
            <circle cx="422" cy="266" r="10" />
            <path
                d="m443.877 224.104c1.409-9.394 2.123-18.85 2.123-28.104 0-11.167-1.312-22.077-3.898-32.425-1.015-4.06-4.451-7.059-8.61-7.515-4.163-.451-8.164 1.726-10.036 5.468-4.62 9.24-13.64 19.932-25.213 30.127-9.792-63.659-42.165-118.29-43.664-120.794-2.311-3.857-6.912-5.697-11.245-4.499-4.334 1.199-7.334 5.142-7.334 9.638 0 15.052-3.877 27.353-12.653 39.226-19.266-37.541-43.284-78.93-58.372-109.636-1.682-3.422-5.162-5.59-8.975-5.59s-7.293 2.168-8.975 5.59c-15.096 30.724-39.136 72.154-58.372 109.636-8.776-11.873-12.653-24.174-12.653-39.226 0-4.496-3-8.439-7.334-9.638-4.331-1.197-8.933.642-11.245 4.499-1.5 2.504-33.872 57.135-43.664 120.794-11.573-10.195-20.593-20.887-25.213-30.127-1.872-3.742-5.874-5.927-10.036-5.468-4.16.457-7.595 3.456-8.61 7.515-2.586 10.348-3.898 21.258-3.898 32.425 0 56.25 25.454 111.588 67.03 147-14.872 17.355-57.204 66.71-57.693 67.338-6.021 7.174-9.337 16.264-9.337 25.662 0 22.056 17.944 40 40 40 12.106 0 23.083-5.456 30.373-13.962l70.112-81.803c3.144.767 6.323 1.439 9.515 2.051v89.714c0 22.056 17.944 40 40 40s40-17.944 40-40v-89.714c3.192-.612 6.371-1.284 9.516-2.052 17.609 20.538 69.777 81.439 70.418 82.124 7.604 8.678 18.486 13.642 30.066 13.642 22.056 0 40-17.944 40-40 0-9.651-3.512-18.903-9.628-26.038l-57.414-66.976c10.91-9.266 20.778-19.881 29.388-31.709 3.25-4.465 2.265-10.72-2.201-13.97-4.467-3.25-10.721-2.265-13.97 2.201-19.81 27.219-46.908 47.432-79.881 58.042 8.606-11.631 13.706-26.004 13.706-41.55 0-33.028-16.105-57.185-31.68-80.547-14.564-21.846-28.32-42.481-28.32-69.453 0-5.523-4.477-10-10-10s-10 4.477-10 10c0 26.972-13.756 47.607-28.32 69.453-15.575 23.362-31.68 47.519-31.68 80.547 0 15.546 5.1 29.919 13.706 41.549-72.044-23.186-113.706-93.149-113.706-161.549 0-1.218.018-2.433.054-3.642 8.092 9.072 18.218 18.135 29.678 26.44 2.931 2.123 6.78 2.498 10.065.979s5.493-4.695 5.773-8.303c3.147-40.567 18.391-80.028 29.844-104.707 5.688 15.068 14.842 25.731 22.415 33.304 2.28 2.28 5.517 3.319 8.702 2.795 3.182-.526 5.915-2.554 7.339-5.447 16.883-34.268 39.124-72.893 56.13-105.381 17.134 32.733 39.254 71.127 56.13 105.381 1.425 2.893 4.158 4.921 7.339 5.447 3.182.526 6.422-.515 8.702-2.795 7.576-7.576 16.735-18.247 22.422-33.324 11.449 24.649 26.683 64.079 29.836 104.727.28 3.608 2.488 6.784 5.773 8.303 3.284 1.518 7.134 1.145 10.065-.979 11.46-8.305 21.586-17.368 29.678-26.44.036 1.209.054 2.424.054 3.642 0 8.265-.64 16.722-1.902 25.137-.819 5.462 2.944 10.554 8.406 11.373 5.469.824 10.555-2.945 11.374-8.406zm-17.877 211.896c0 11.028-8.972 20-20 20-11.009 0-20-8.91-20-20 0-11.028 8.972-20 20-20 10.987 0 20 8.93 20 20zm-63.013-80.915 35.664 41.603c-14.139 2.638-25.681 12.731-30.377 26.036l-41.909-48.897c12.988-4.848 25.24-11.117 36.622-18.742zm-106.987 136.915c-11.028 0-20-8.972-20-20s8.972-20 20-20 20 8.972 20 20-8.972 20-20 20zm20-54.619c-5.888-3.415-12.717-5.381-20-5.381s-14.112 1.966-20 5.381v-52.276c6.566.594 13.257.894 20 .894 6.744 0 13.435-.301 20-.894zm-41.68-190.834c7.788-11.681 15.707-23.559 21.68-36.647 5.973 13.088 13.892 24.966 21.68 36.647 14.564 21.846 28.32 42.481 28.32 69.453 0 27.57-22.43 50-50 50s-50-22.43-50-50c0-26.972 13.756-47.607 28.32-69.453zm-128.32 209.453c-11.028 0-20-8.972-20-20 0-11.072 9.014-20 20-20 11.028 0 20 8.972 20 20 0 11.032-8.971 20-20 20zm43.013-100.915c11.382 7.624 23.633 13.893 36.622 18.742l-41.909 48.897c-4.696-13.305-16.238-23.398-30.377-26.036z" />
        </g>
    </symbol>
    <use href="#bonfire"></use>
</svg>